<svg width="64" height="64" viewBox="0 0 64 64" fill="none" xmlns="http://www.w3.org/2000/svg">
<path d="M22.6214 5.14746C22.6214 5.14746 19.816 29.1318 8.94128 45.3394C8.94128 45.3394 23.2925 32.4608 24.5823 45.261C24.5823 45.261 28.7167 32.9712 22.6214 5.14746V5.14746Z" stroke="#00B2DA" stroke-width="0.75" stroke-miterlimit="10"/>
<path d="M23.7938 3.57825C26.2938 12.3811 31.2024 36.9568 24.2807 50.8537C24.2807 50.8537 31.0483 49.7088 37.4765 47.0064C47.2598 42.8929 54.5562 36.7584 57.1972 43.9138C60.141 51.8877 23.7938 3.57825 23.7938 3.57825Z" stroke="#00B2DA" stroke-width="0.75" stroke-miterlimit="10"/>
<path d="M22.0741 49.2239C23.7375 47.3589 23.5287 44.4582 21.6078 42.7449C19.6868 41.0316 16.7812 41.1546 15.1178 43.0195C13.4544 44.8845 13.6632 47.7853 15.5842 49.4985C17.5051 51.2118 20.4107 51.0889 22.0741 49.2239Z" stroke="#00B2DA" stroke-width="0.75" stroke-miterlimit="10"/>
<path d="M51.3159 43.4857V43.5836C52.436 43.5836 53.1554 43.9034 53.5183 44.5601C53.9765 45.393 53.8486 46.8003 53.1371 48.7442C52.3525 50.8852 50.8316 53.7507 48.6149 57.2611C47.1919 59.5157 44.4974 60.6593 40.6058 60.6593C37.3185 60.6593 33.1227 59.8134 28.4726 58.2141C24.6475 56.8982 20.5261 55.0758 16.8303 53.0653C17.8003 53.0262 18.8473 52.9557 19.9491 52.8551C22.2715 52.6449 32.9543 50.4726 38.8029 47.8486C44.0078 45.5144 48.5418 43.5823 51.3172 43.5823V43.4844M8.05223 46.5405C8.05614 46.5758 8.06136 46.6136 8.0705 46.6515C8.34988 47.8865 11.4935 50.3225 16.111 52.8943C15.7272 52.9047 15.3525 52.91 14.9935 52.91C10.3316 52.91 7.61228 52.0784 6.90993 50.4387C6.28068 48.97 7.4987 47.2259 8.05223 46.5418M51.3172 43.4857C48.4308 43.4857 43.5248 45.6254 38.7624 47.7611C32.8303 50.4217 22.0927 52.564 19.94 52.7585C18.6723 52.8734 17.5196 52.9452 16.4713 52.9818C23.44 56.816 33.376 60.7572 40.6058 60.7572C44.2102 60.7572 47.1436 59.7768 48.6984 57.3134C55.3682 46.7494 54.8825 43.4857 51.3172 43.4857ZM8.23499 46.1789C8.23499 46.1789 1.71672 53.0079 14.9935 53.0079C15.4608 53.0079 15.9517 53 16.4713 52.9818C11.1266 50.0418 7.52873 47.1645 8.2363 46.1789H8.23499Z" fill="#00B2DA"/>
<path d="M23.1253 4.6449C23.1253 4.6449 20.3198 28.6292 9.44516 44.8368C9.44516 44.8368 23.7963 31.9582 25.0862 44.7585C25.0862 44.7585 29.2206 32.4687 23.1253 4.6449Z" fill="#00B2DA"/>
<path d="M23.1253 3.2428C25.6253 12.0457 30.534 36.6214 23.6123 50.5183C23.6123 50.5183 30.3799 49.3733 36.8081 46.671C46.5914 42.5574 53.8877 36.423 56.5287 43.5783C59.4739 51.5522 23.1253 3.2428 23.1253 3.2428Z" fill="#008BAA"/>
<path d="M22.7457 48.3871C24.4091 46.5221 24.2003 43.6214 22.2794 41.9081C20.3584 40.1948 17.4528 40.3178 15.7894 42.1828C14.126 44.0477 14.3348 46.9485 16.2558 48.6617C18.1767 50.375 21.0823 50.2521 22.7457 48.3871Z" fill="#FFA800"/>
<path d="M8.906 45.8446C8.906 45.8446 0.924273 54.2049 20.6096 52.4242C22.7624 52.2297 33.5 50.0874 39.4321 47.4268C50.0783 42.6527 61.4373 37.8629 49.3681 56.9804C42.3042 68.1697 6.81592 48.7584 8.906 45.8459V45.8446Z" fill="#007B97"/>
</svg>
