<svg width="12" height="13" viewBox="0 0 12 13" fill="none" xmlns="http://www.w3.org/2000/svg">
<path d="M0.375 7.92505C0.474456 7.92505 0.569839 7.96456 0.640165 8.03488C0.710491 8.10521 0.75 8.20059 0.75 8.30005V10.175C0.75 10.374 0.829018 10.5647 0.96967 10.7054C1.11032 10.846 1.30109 10.925 1.5 10.925H10.5C10.6989 10.925 10.8897 10.846 11.0303 10.7054C11.171 10.5647 11.25 10.374 11.25 10.175V8.30005C11.25 8.20059 11.2895 8.10521 11.3598 8.03488C11.4302 7.96456 11.5255 7.92505 11.625 7.92505C11.7245 7.92505 11.8198 7.96456 11.8902 8.03488C11.9605 8.10521 12 8.20059 12 8.30005V10.175C12 10.5729 11.842 10.9544 11.5607 11.2357C11.2794 11.517 10.8978 11.675 10.5 11.675H1.5C1.10218 11.675 0.720644 11.517 0.43934 11.2357C0.158035 10.9544 0 10.5729 0 10.175V8.30005C0 8.20059 0.0395088 8.10521 0.109835 8.03488C0.180161 7.96456 0.275544 7.92505 0.375 7.92505Z" fill="#00B2DA"/>
<path d="M5.73449 1.35956C5.76932 1.32464 5.8107 1.29693 5.85626 1.27803C5.90182 1.25912 5.95066 1.24939 5.99999 1.24939C6.04931 1.24939 6.09815 1.25912 6.14371 1.27803C6.18927 1.29693 6.23065 1.32464 6.26549 1.35956L8.51549 3.60956C8.5859 3.67998 8.62546 3.77548 8.62546 3.87506C8.62546 3.97464 8.5859 4.07015 8.51549 4.14056C8.44507 4.21098 8.34957 4.25053 8.24999 4.25053C8.1504 4.25053 8.0549 4.21098 7.98449 4.14056L6.37499 2.53031V9.12506C6.37499 9.22452 6.33548 9.3199 6.26515 9.39023C6.19482 9.46055 6.09944 9.50006 5.99999 9.50006C5.90053 9.50006 5.80515 9.46055 5.73482 9.39023C5.66449 9.3199 5.62499 9.22452 5.62499 9.12506V2.53031L4.01549 4.14056C3.98062 4.17543 3.93923 4.20308 3.89367 4.22195C3.84812 4.24082 3.79929 4.25053 3.74999 4.25053C3.70068 4.25053 3.65185 4.24082 3.6063 4.22195C3.56074 4.20308 3.51935 4.17543 3.48449 4.14056C3.44962 4.10569 3.42196 4.0643 3.40309 4.01875C3.38422 3.97319 3.37451 3.92437 3.37451 3.87506C3.37451 3.82575 3.38422 3.77693 3.40309 3.73137C3.42196 3.68582 3.44962 3.64443 3.48449 3.60956L5.73449 1.35956Z" fill="#00B2DA"/>
</svg>
